<?xml version="1.0" encoding="utf-8"?>
<!-- Generator: Adobe Illustrator 21.0.0, SVG Export Plug-In . SVG Version: 6.00 Build 0)  -->
<svg version="1.1" id="レイヤー_1" xmlns="http://www.w3.org/2000/svg" xmlns:xlink="http://www.w3.org/1999/xlink" x="0px"
	 y="0px" viewBox="0 0 186.5 98.6" style="enable-background:new 0 0 186.5 98.6;" xml:space="preserve">
<style type="text/css">
	.st0{fill:#58635B;}
</style>
<g>
	<g>
		<g>
			<g>
				<g>
					<g>
						<path class="st0" d="M34.3,68.6c9.2,0,17.8-3.6,24.2-10c6.5-6.5,10-15.1,10-24.2c0-9.2-3.6-17.8-10-24.2C52,3.6,43.4,0,34.3,0
							C15.4,0,0,15.4,0,34.3C0,43.4,3.6,52,10,58.5C16.5,65,25.1,68.6,34.3,68.6z M4.7,34.3c0-7.9,3.1-15.3,8.7-20.9
							c5.6-5.6,13-8.7,20.9-8.7c7.9,0,15.3,3.1,20.9,8.7c5.6,5.6,8.7,13,8.7,20.9c0,16.3-13.3,29.6-29.6,29.6
							c-7.9,0-15.3-3.1-20.9-8.7C7.8,49.6,4.7,42.2,4.7,34.3z"/>
						<path class="st0" d="M134.2,68.6c9.2,0,17.8-3.6,24.2-10c6.5-6.5,10-15.1,10-24.2c0-9.2-3.6-17.8-10-24.2
							C152,3.6,143.4,0,134.2,0c-18.9,0-34.3,15.4-34.3,34.3c0,9.2,3.6,17.8,10,24.2C116.4,65,125,68.6,134.2,68.6z M104.6,34.3
							c0-7.9,3.1-15.3,8.7-20.9c5.6-5.6,13-8.7,20.9-8.7c7.9,0,15.3,3.1,20.9,8.7c5.6,5.6,8.7,13,8.7,20.9
							c0,16.3-13.3,29.6-29.6,29.6c-7.9,0-15.3-3.1-20.9-8.7C107.7,49.6,104.6,42.2,104.6,34.3z"/>
					</g>
					<g>
						<rect x="81.9" y="2.6" class="st0" width="4.7" height="63.4"/>
						<rect x="181.8" y="2.6" class="st0" width="4.7" height="63.4"/>
					</g>
				</g>
			</g>
		</g>
	</g>
	<g>
		<g>
			<path class="st0" d="M90.6,84.1v14.3h-3.3V84.1H90.6z"/>
		</g>
		<g>
			<path class="st0" d="M152.3,85.5c0.9,0.8,2.5,2.5,2.5,5.6l0,0c0,5.1-4.2,7.5-8.4,7.5l0,0c-5.7,0-7.9-3.9-7.9-7.3l0,0
				c0-2.5,1.1-4.3,2.7-5.6l0,0c2-1.6,4-1.9,6-1.9l0,0C147.7,83.8,150.4,83.9,152.3,85.5L152.3,85.5z M146.8,96.7
				c1.7,0,4.6-1.1,4.6-5.3l0,0c0-3.7-2.4-5.7-5-5.7l0,0c-3.1,0-4.6,2.5-4.6,5.3l0,0C141.8,94.6,144.2,96.7,146.8,96.7L146.8,96.7z"
				/>
		</g>
		<path class="st0" d="M178.4,98.3h-3.1V84.2c1.3,0,3.4-0.1,5.1-0.1c1.5,0,3.4,0.1,4.7,1.3c0.8,0.7,1.3,1.8,1.3,3.2
			c0,1.7-0.9,2.8-1.9,3.5c-1.5,1-3.8,1-4.6,1c-0.6,0-1,0-1.5,0V98.3z M178.4,91.2c0.4,0,0.6,0.1,1.4,0.1c1.1,0,3.5,0,3.5-2.7
			c0-2-1.1-2.8-3.3-2.8c-0.6,0-1.2,0-1.5,0V91.2z"/>
		<g>
			<path class="st0" d="M66.8,97.8l0,0.5c0,0-1.1,0-1.8,0c-0.9,0-2.1,0.1-2.9-0.8c-0.6-0.7-2.1-2.9-3.4-5.1c-0.5,0-1.8,0-1.8,0v5.9
				h-3.2V84.1h0.1c0.6,0,4.7-0.1,5.2-0.1l0,0c2.4,0,3.7,0.2,4.9,1.1l0,0c1,0.9,1.3,1.9,1.3,2.8l0,0c0,1.7-0.9,3-3.3,3.8
				C64.8,97.1,66.8,97.8,66.8,97.8z M58.4,90.7c0.5,0,0.9,0,1.3-0.1l0,0c1.4-0.2,2-1.2,2-2.5l0,0c0-1.4-0.7-2.3-3.1-2.3l0,0h-1.8
				v4.9C57.5,90.7,58,90.7,58.4,90.7L58.4,90.7z"/>
		</g>
		<g>
			<path class="st0" d="M136.8,97.8l0,0.5c0,0-1.1,0-1.8,0c-0.9,0-2.1,0.1-2.9-0.8c-0.6-0.7-2.1-2.9-3.4-5.1c-0.5,0-1.8,0-1.8,0v5.9
				h-3.2V84.1h0.1c0.6,0,4.7-0.1,5.2-0.1l0,0c2.4,0,3.7,0.2,4.9,1.1l0,0c1,0.9,1.3,1.9,1.3,2.8l0,0c0,1.7-0.9,3-3.3,3.8
				C134.8,97.1,136.8,97.8,136.8,97.8z M128.4,90.7c0.5,0,0.9,0,1.3-0.1l0,0c1.4-0.2,2-1.2,2-2.5l0,0c0-1.4-0.7-2.3-3.1-2.3l0,0
				h-1.8v4.9C127.5,90.7,128,90.7,128.4,90.7L128.4,90.7z"/>
		</g>
		<g>
			<path class="st0" d="M112.8,80.6c-6.3,0-10.9,3.7-10.9,9.3c0,2.9,1.4,8.7,10,8.7c2.4,0,4.8-0.4,7.2-1v-8h-3.8v6.4
				c-0.6,0.2-1.6,0.4-2.7,0.4c-1.1,0-2.9-0.2-4.2-1.2c-2.2-1.6-2.3-4.7-2.3-5.8c0-4.8,3.1-6.7,6.4-6.7c1.4,0,2.8,0.4,4.1,1
				c0.1,0.1,1.1,0.6,1.7,1v-3.3C117.3,81.2,115.1,80.6,112.8,80.6z"/>
		</g>
		<path class="st0" d="M39.9,94.1h5.3l1.5,4.2h3.6l-5.9-14.3h-2.7l-6.5,14.3h2.9L39.9,94.1z M44.5,92.3h-3.8l2-4.9L44.5,92.3z"/>
		<path class="st0" d="M72.7,84.1h-3.3c0,0,0,4.6,0,8.3c0,3.4,0.6,6.3,6.5,6.3c5.6,0,6.4-3.1,6.4-7.1c0-2.8,0-7.5,0-7.5h-2.4V92
			c0,2.3-0.4,4.3-3.5,4.3c-3.1,0-3.6-2-3.6-3.7C72.7,90.9,72.7,84.1,72.7,84.1z"/>
		<path class="st0" d="M161.6,84.1h-3.3c0,0,0,4.6,0,8.3c0,3.4,0.6,6.3,6.5,6.3c5.6,0,6.4-3.1,6.4-7.1c0-2.8,0-7.5,0-7.5h-2.4V92
			c0,2.3-0.4,4.3-3.5,4.3c-3.1,0-3.6-2-3.6-3.7C161.6,90.9,161.6,84.1,161.6,84.1z"/>
		<polygon class="st0" points="31.3,81 27.8,81 21.5,93.4 15.5,81 12,81 10.8,98.3 13.7,98.3 13.9,85.7 19.8,98.1 21.7,98.1 
			27.8,86.2 28.2,98.3 32,98.3 		"/>
	</g>
</g>
</svg>
